<svg xmlns="http://www.w3.org/2000/svg" xmlns:xlink="http://www.w3.org/1999/xlink" version="1.1" width="256" height="256" viewBox="0 0 256 256" xml:space="preserve">

<defs>
</defs>
<g style="stroke: none; stroke-width: 0; stroke-dasharray: none; stroke-linecap: butt; stroke-linejoin: miter; stroke-miterlimit: 10; fill: none; fill-rule: nonzero; opacity: 1;" transform="translate(1.4065934065934016 1.4065934065934016) scale(2.81 2.81)" >
	<path d="M 45 90 c -12.046 0 -21.481 -19.767 -21.481 -45 c 0 -25.234 9.436 -45 21.481 -45 s 21.481 19.766 21.481 45 C 66.481 70.233 57.046 90 45 90 z M 45 4 c -9.476 0 -17.481 18.776 -17.481 41 c 0 22.225 8.005 41 17.481 41 c 9.476 0 17.481 -18.775 17.481 -41 C 62.481 22.776 54.476 4 45 4 z" style="stroke: none; stroke-width: 1; stroke-dasharray: none; stroke-linecap: butt; stroke-linejoin: miter; stroke-miterlimit: 10; fill: currentColor; fill-rule: nonzero; opacity: 1;" transform=" matrix(1 0 0 1 0 0) " stroke-linecap="round" />
	<path d="M 68.215 74.322 c -9.458 0 -21.703 -3.646 -33.956 -10.719 C 12.407 50.986 0.006 32.932 6.029 22.5 c 6.022 -10.433 27.859 -8.72 49.711 3.897 l 0 0 c 10.188 5.882 18.749 13.237 24.105 20.711 c 5.678 7.923 7.144 15.165 4.126 20.392 C 81.325 72.083 75.625 74.322 68.215 74.322 z M 21.567 19.642 c -5.802 0 -10.179 1.577 -12.074 4.858 c -4.738 8.207 7.52 24.527 26.767 35.639 C 55.507 71.251 75.769 73.704 80.507 65.5 c 2.155 -3.731 0.729 -9.586 -3.912 -16.062 c -5.032 -7.021 -13.148 -13.974 -22.854 -19.578 l 0 0 C 42.19 23.193 30.274 19.642 21.567 19.642 z" style="stroke: none; stroke-width: 1; stroke-dasharray: none; stroke-linecap: butt; stroke-linejoin: miter; stroke-miterlimit: 10; fill: currentColor; fill-rule: nonzero; opacity: 1;" transform=" matrix(1 0 0 1 0 0) " stroke-linecap="round" />
	<path d="M 21.785 74.322 c -7.412 0 -13.11 -2.238 -15.756 -6.822 c -6.023 -10.432 6.377 -28.486 28.23 -41.103 l 0 0 C 56.113 13.78 77.949 12.069 83.972 22.5 c 3.018 5.227 1.552 12.469 -4.126 20.392 c -5.356 7.474 -13.917 14.829 -24.105 20.711 C 43.49 70.676 31.243 74.322 21.785 74.322 z M 36.259 29.861 C 17.013 40.973 4.755 57.294 9.493 65.5 c 4.738 8.206 25.002 5.75 44.248 -5.361 c 9.706 -5.604 17.822 -12.556 22.854 -19.577 c 4.641 -6.476 6.067 -12.331 3.912 -16.062 C 75.771 16.295 55.508 18.748 36.259 29.861 L 36.259 29.861 z" style="stroke: none; stroke-width: 1; stroke-dasharray: none; stroke-linecap: butt; stroke-linejoin: miter; stroke-miterlimit: 10; fill: currentColor; fill-rule: nonzero; opacity: 1;" transform=" matrix(1 0 0 1 0 0) " stroke-linecap="round" />
	<circle cx="45.004" cy="45.004" r="7.064" style="stroke: none; stroke-width: 1; stroke-dasharray: none; stroke-linecap: butt; stroke-linejoin: miter; stroke-miterlimit: 10; fill: currentColor; fill-rule: nonzero; opacity: 1;" transform="  matrix(1 0 0 1 0 0) "/>
</g>
</svg>