<svg
   width="512"
   height="512"
   viewBox="0 0 135.46667 135.46667"
   version="1.1"
   id="svg1"
   xmlns="http://www.w3.org/2000/svg"
   xmlns:svg="http://www.w3.org/2000/svg">
  <defs
     id="defs1" />
  <path
     id="path6"
     style="fill:currentColor;fill-opacity:1;stroke:none;stroke-width:4.23334;stroke-linecap:butt;stroke-linejoin:round;stroke-dasharray:none;stroke-opacity:1;paint-order:normal"
     d="m 67.733335,4 v 8.933334 a 6.9281934,6.9281934 59.999965 0 0 3.464104,5.999996 l 37.066011,21.400008 a 6.9281934,6.9281934 59.999965 0 1 3.4641,5.999996 l 0,42.800003 c 0,2.209139 -1.55093,4.895429 -3.4641,5.999996 -2.57885,1.488891 -5.15769,2.977783 -7.73653,4.466673 C 98.613746,100.70457 97.062813,99.809139 97.062813,97.6 V 54.800001 c 0,-2.209139 -1.550932,-4.895428 -3.464104,-5.999995 -7.467091,-4.311114 -14.93418,-8.622229 -22.40127,-12.933343 -1.913172,-1.104567 -5.015036,-1.104567 -6.928208,0 l -7.73653,4.466675 A 2.3094043,2.3094043 30.000034 0 1 53.068597,38.333334 V 12.466667 A 2.3094043,2.3094043 30.000035 0 0 49.604493,10.466663 L 12.538486,31.866671 a 6.9281934,6.9281934 120.00004 0 0 -3.4641042,5.999996 l 0,59.733333 a 6.9281938,6.9281938 59.999966 0 0 3.4641042,6 l 51.730745,29.86667 a 2.3094042,2.3094042 149.99997 0 0 3.464104,-2 l 0,-8.93333 c 0,-2.20914 -1.550932,-4.89543 -3.464104,-6 C 51.913896,109.4 39.55856,102.26667 27.203224,95.133332 25.290052,94.028765 23.73912,91.342476 23.73912,89.133337 V 46.333334 a 6.9281936,6.9281936 120.00003 0 1 3.464104,-5.999996 l 7.73653,-4.466675 a 2.3094043,2.3094043 30.000034 0 1 3.464104,2.000004 v 42.800002 c 0,2.209139 1.550932,4.895429 3.464104,5.999996 7.467089,4.311115 14.934179,8.622227 22.401269,12.93334 1.913172,1.104565 5.015037,1.104565 6.928209,10e-7 2.578843,-1.48889 5.157686,-2.977782 7.736529,-4.466674 1.913171,-1.104567 3.464104,-0.209134 3.464104,2.000005 V 123 c 0,2.20914 1.550933,3.10457 3.464105,2.00001 12.355336,-7.13334 24.710672,-14.26667 37.066012,-21.40001 1.91317,-1.10457 3.4641,-3.790861 3.4641,-6 l 0,-59.733333 c 0,-2.209139 -1.55093,-4.895428 -3.4641,-5.999995 C 105.6846,21.911113 88.44102,11.955554 71.197439,1.9999958 69.284267,0.89542864 67.733335,1.790861 67.733335,4 Z m 3.464104,48.799997 7.73653,4.466675 a 6.9281936,6.9281936 59.999966 0 1 3.464104,5.999996 v 8.933334 a 6.9281936,6.9281936 120.00003 0 1 -3.464104,5.999996 l -7.73653,4.466675 a 6.9282224,6.9282224 0 0 1 -6.928208,0 l -7.73653,-4.466675 a 6.9281936,6.9281936 59.999966 0 1 -3.464104,-5.999996 v -8.933334 a 6.9281936,6.9281936 120.00003 0 1 3.464104,-5.999996 l 7.73653,-4.466675 a 6.9282224,6.9282224 0 0 1 6.928208,0 z" />
</svg>
